<mxfile host="app.diagrams.net" modified="2021-06-24T09:55:07.174Z" agent="5.0 (Macintosh; Intel Mac OS X 10_15_7) AppleWebKit/537.36 (KHTML, like Gecko) Chrome/91.0.4472.114 Safari/537.36" etag="JFl4sEQ8FFiWyqit_hAj" version="14.8.0" type="github">
  <diagram id="WNZOQcG9XWp3c4rnJBFp" name="Page-1">
    <mxGraphModel dx="946" dy="481" grid="1" gridSize="10" guides="1" tooltips="1" connect="1" arrows="1" fold="1" page="1" pageScale="1" pageWidth="827" pageHeight="1169" math="0" shadow="0">
      <root>
        <mxCell id="0" />
        <mxCell id="1" parent="0" />
        <mxCell id="zpw3em-p5FYre-x9PmGA-19" value="" style="shape=ext;double=1;rounded=0;whiteSpace=wrap;html=1;" vertex="1" parent="1">
          <mxGeometry x="240" y="180" width="360" height="380" as="geometry" />
        </mxCell>
        <mxCell id="zpw3em-p5FYre-x9PmGA-1" value="&lt;font style=&quot;font-size: 20px&quot;&gt;沙箱SDK&lt;/font&gt;" style="rounded=0;whiteSpace=wrap;html=1;fillColor=#d5e8d4;strokeColor=#82b366;labelPosition=center;verticalLabelPosition=bottom;align=center;verticalAlign=top;" vertex="1" parent="1">
          <mxGeometry x="280" y="360" width="280" height="160" as="geometry" />
        </mxCell>
        <mxCell id="zpw3em-p5FYre-x9PmGA-2" value="独立文件系统" style="rounded=0;whiteSpace=wrap;html=1;fillColor=#dae8fc;strokeColor=#6c8ebf;" vertex="1" parent="1">
          <mxGeometry x="360" y="450" width="120" height="50" as="geometry" />
        </mxCell>
        <mxCell id="zpw3em-p5FYre-x9PmGA-7" style="edgeStyle=orthogonalEdgeStyle;rounded=0;orthogonalLoop=1;jettySize=auto;html=1;entryX=0.214;entryY=0;entryDx=0;entryDy=0;entryPerimeter=0;startArrow=classic;startFill=1;endArrow=none;endFill=0;exitX=0.211;exitY=1;exitDx=0;exitDy=0;exitPerimeter=0;" edge="1" parent="1" source="zpw3em-p5FYre-x9PmGA-3" target="zpw3em-p5FYre-x9PmGA-1">
          <mxGeometry relative="1" as="geometry" />
        </mxCell>
        <mxCell id="zpw3em-p5FYre-x9PmGA-10" value="OEM集成" style="edgeLabel;html=1;align=center;verticalAlign=middle;resizable=0;points=[];" vertex="1" connectable="0" parent="zpw3em-p5FYre-x9PmGA-7">
          <mxGeometry x="0.0012" y="-1" relative="1" as="geometry">
            <mxPoint as="offset" />
          </mxGeometry>
        </mxCell>
        <mxCell id="zpw3em-p5FYre-x9PmGA-17" style="edgeStyle=orthogonalEdgeStyle;rounded=0;orthogonalLoop=1;jettySize=auto;html=1;entryX=0.5;entryY=0;entryDx=0;entryDy=0;startArrow=classic;startFill=1;endArrow=none;endFill=0;exitX=0.786;exitY=1.025;exitDx=0;exitDy=0;exitPerimeter=0;" edge="1" parent="1" source="zpw3em-p5FYre-x9PmGA-3" target="zpw3em-p5FYre-x9PmGA-4">
          <mxGeometry relative="1" as="geometry" />
        </mxCell>
        <mxCell id="zpw3em-p5FYre-x9PmGA-18" value="从应用平台安装于安全沙箱" style="edgeLabel;html=1;align=center;verticalAlign=middle;resizable=0;points=[];" vertex="1" connectable="0" parent="zpw3em-p5FYre-x9PmGA-17">
          <mxGeometry x="0.1794" y="1" relative="1" as="geometry">
            <mxPoint as="offset" />
          </mxGeometry>
        </mxCell>
        <mxCell id="zpw3em-p5FYre-x9PmGA-3" value="APP" style="rounded=0;whiteSpace=wrap;html=1;fillColor=#f8cecc;strokeColor=#b85450;" vertex="1" parent="1">
          <mxGeometry x="280" y="200" width="280" height="40" as="geometry" />
        </mxCell>
        <mxCell id="zpw3em-p5FYre-x9PmGA-11" style="edgeStyle=orthogonalEdgeStyle;rounded=0;orthogonalLoop=1;jettySize=auto;html=1;entryX=0.786;entryY=0;entryDx=0;entryDy=0;entryPerimeter=0;startArrow=classic;startFill=1;endArrow=none;endFill=0;" edge="1" parent="1" source="zpw3em-p5FYre-x9PmGA-4" target="zpw3em-p5FYre-x9PmGA-1">
          <mxGeometry relative="1" as="geometry" />
        </mxCell>
        <mxCell id="zpw3em-p5FYre-x9PmGA-12" value="基于沙箱的应用平台" style="edgeLabel;html=1;align=center;verticalAlign=middle;resizable=0;points=[];" vertex="1" connectable="0" parent="zpw3em-p5FYre-x9PmGA-11">
          <mxGeometry x="-0.0762" relative="1" as="geometry">
            <mxPoint as="offset" />
          </mxGeometry>
        </mxCell>
        <mxCell id="zpw3em-p5FYre-x9PmGA-4" value="安全工作台" style="rounded=0;whiteSpace=wrap;html=1;fillColor=#d5e8d4;strokeColor=#82b366;" vertex="1" parent="1">
          <mxGeometry x="440" y="280" width="120" height="40" as="geometry" />
        </mxCell>
        <mxCell id="zpw3em-p5FYre-x9PmGA-5" value="数据安全隔离" style="rounded=0;whiteSpace=wrap;html=1;fillColor=#dae8fc;strokeColor=#6c8ebf;" vertex="1" parent="1">
          <mxGeometry x="360" y="380" width="120" height="50" as="geometry" />
        </mxCell>
      </root>
    </mxGraphModel>
  </diagram>
</mxfile>
